<svg width="39" height="39" viewBox="0 0 39 39" fill="none" xmlns="http://www.w3.org/2000/svg">
<g clip-path="url(#clip0_0_42)">
<path d="M0.63373 0C0.262011 0.0700782 -0.00611402 0.399141 -2.02727e-05 0.78V31.98C-2.02727e-05 32.4096 0.350371 32.76 0.77998 32.76H13.26V31.2H1.55998V1.56H37.44V31.2H25.74V32.76H38.22C38.6496 32.76 39 32.4096 39 31.98V0.78C39 0.350391 38.6496 0 38.22 0H0.77998C0.755605 0 0.73123 0 0.706855 0C0.68248 0 0.658105 0 0.63373 0ZM7.79998 7.02V8.58H31.2V7.02H7.79998ZM7.79998 10.92V12.48H31.2V10.92H7.79998ZM7.79998 14.82V16.38H31.2V14.82H7.79998ZM19.4269 18.6469C18.6103 18.6469 17.9613 19.1344 17.55 19.7925C16.7883 19.5487 15.9565 19.6219 15.3319 20.1581C14.6981 20.7005 14.5031 21.5048 14.6006 22.2787C13.8572 22.5895 13.2813 23.1806 13.1137 23.9362C13.1137 23.9606 13.1137 23.985 13.1137 24.0094C13.0193 24.762 13.3544 25.4505 13.8937 25.9837C13.5403 26.6906 13.4093 27.5102 13.8206 28.2262C14.0522 28.6315 14.4147 28.8966 14.82 29.0794V38.22C14.8261 38.4942 14.9784 38.7471 15.2161 38.8812C15.4568 39.0183 15.7523 39.0152 15.99 38.8781L19.5 36.7819L23.01 38.8781C23.2476 39.0152 23.5432 39.0183 23.7839 38.8812C24.0215 38.7471 24.1739 38.4942 24.18 38.22V28.7625C24.3628 28.6284 24.5304 28.4913 24.6675 28.2994C24.6766 28.275 24.6858 28.2506 24.6919 28.2262C25.091 27.5255 24.9996 26.7302 24.6675 26.0325C25.3652 25.5176 25.8253 24.7802 25.74 24.0094C25.7339 23.985 25.7247 23.9606 25.7156 23.9362C25.5389 23.1471 24.9539 22.5743 24.2287 22.2544C24.3171 21.4896 24.1495 20.6974 23.5219 20.1581C22.8729 19.6036 22.0441 19.5884 21.3037 19.7925C20.8894 19.1557 20.2678 18.6469 19.4269 18.6469ZM19.4269 20.2069C19.7833 20.2069 20.0423 20.4202 20.1825 20.7919C20.2678 21.0112 20.4445 21.1819 20.67 21.255C20.6822 21.2611 20.7858 21.2641 20.8162 21.2794C20.8558 21.2916 20.8254 21.3037 20.9137 21.3037C20.9869 21.3312 20.9899 21.3769 21.1331 21.3769C21.2611 21.3738 21.386 21.3403 21.4987 21.2794C21.9131 21.0722 22.2026 21.0752 22.4981 21.3281C22.8058 21.5932 22.8698 21.9405 22.7419 22.2787C22.6504 22.5499 22.7175 22.8485 22.9125 23.0587C22.9429 23.1197 22.9765 23.2202 23.0831 23.3269C23.1897 23.4366 23.3238 23.5127 23.4731 23.5462C23.9088 23.6437 24.0764 23.8327 24.18 24.2531C24.2104 24.6127 24.1526 24.8077 23.595 25.0087C23.2872 25.1215 23.0831 25.414 23.0831 25.74V26.0569C23.0862 26.2153 23.1379 26.3677 23.2294 26.4956C23.4518 26.8095 23.4701 27.1751 23.3512 27.4219C23.1105 27.7266 22.7632 27.8972 22.4737 27.8606C22.2391 27.8332 22.0076 27.9155 21.84 28.08L21.5962 28.2994C21.45 28.4487 21.3708 28.6528 21.3769 28.86C21.3769 29.2744 21.2154 29.4846 20.865 29.6156C20.8558 29.6156 20.8497 29.6156 20.8406 29.6156C20.8406 29.6065 20.7126 29.64 20.5969 29.64C20.3897 29.64 20.1825 29.5425 19.9631 29.3231C19.8199 29.183 19.6279 29.1068 19.4269 29.1037H19.0369C18.8297 29.0977 18.6255 29.1769 18.4762 29.3231C18.1624 29.637 17.9034 29.7284 17.5987 29.6156C17.3001 29.5029 17.0869 29.1586 17.0869 28.86C17.0838 28.6467 16.9985 28.4456 16.8431 28.2994L16.6237 28.08C16.4501 27.9094 16.2063 27.8271 15.9656 27.8606C15.6579 27.9002 15.3379 27.7387 15.1856 27.4706C15.0454 27.2238 15.0729 26.8247 15.3075 26.4956C15.3989 26.3677 15.4507 26.2153 15.4537 26.0569V25.74C15.4507 25.4536 15.2922 25.1916 15.0394 25.0575C14.8322 24.9387 14.6646 24.5487 14.6737 24.2531C14.7804 23.8235 14.9754 23.5828 15.3075 23.5462C15.4812 23.528 15.6457 23.4487 15.7706 23.3269C15.8894 23.208 15.9382 23.0862 15.9656 23.0344C16.1362 22.8211 16.1819 22.5347 16.0875 22.2787C15.9595 21.9405 16.0235 21.5932 16.3312 21.3281C16.6298 21.0722 17.0381 21.0722 17.2575 21.2306C17.4951 21.3952 17.8059 21.4134 18.0619 21.2794C18.071 21.2794 18.0771 21.2794 18.0862 21.2794C18.1106 21.2733 18.135 21.2641 18.1594 21.255C18.4244 21.1758 18.6286 20.9625 18.6956 20.6944C18.7565 20.4567 19.0704 20.2069 19.4269 20.2069ZM22.62 29.8594V36.855L19.89 35.2219C19.6493 35.0817 19.3507 35.0817 19.11 35.2219L16.38 36.855V30.6637C16.5628 30.8374 16.7791 30.9806 17.0381 31.0781C17.812 31.3676 18.5554 31.0873 19.1587 30.6637C19.1648 30.6607 19.177 30.6668 19.1831 30.6637C19.1892 30.6668 19.2014 30.6607 19.2075 30.6637C19.5822 30.9502 20.0332 31.2 20.5969 31.2C20.737 31.2 21.0387 31.197 21.4012 31.0537C21.4134 31.0416 21.4347 31.0355 21.45 31.0294C21.4713 31.0202 21.4774 31.0416 21.4987 31.0294V31.005C22.0137 30.7795 22.3945 30.3652 22.62 29.8594Z" fill="url(#paint0_linear_0_42)"/>
</g>
<defs>
<linearGradient id="paint0_linear_0_42" x1="44" y1="1.1148e-06" x2="8.05638e-06" y2="39" gradientUnits="userSpaceOnUse">
<stop offset="0.25" stop-color="#3B768F"/>
<stop offset="0.536458" stop-color="#3EC6FF"/>
<stop offset="0.817708" stop-color="#3B768F"/>
</linearGradient>
<clipPath id="clip0_0_42">
<rect width="39" height="39" fill="white"/>
</clipPath>
</defs>
</svg>
