<svg width="25" height="25" viewBox="0 0 25 25" fill="none" xmlns="http://www.w3.org/2000/svg">
<path d="M5.91992 1.49436C5.53515 1.46311 5.10742 1.57444 4.71288 1.85179C4.36523 2.09397 3.61523 2.68968 2.91406 3.36351C2.56445 3.69944 2.23046 4.04905 1.97265 4.3928C1.71288 4.73655 1.48632 5.05101 1.49999 5.50804C1.51367 5.91819 1.55468 7.13108 2.42773 8.99046C3.30077 10.8479 4.99413 13.3967 8.29687 16.7014C11.6016 20.0061 14.1504 21.6994 16.0078 22.5725C17.8652 23.4455 19.0801 23.4866 19.4902 23.5002C19.9453 23.5139 20.2598 23.2873 20.6035 23.0276C20.9473 22.7678 21.2969 22.4358 21.6328 22.0862C22.3047 21.385 22.9004 20.635 23.1426 20.2873C23.6953 19.5002 23.6035 18.5705 22.9883 18.1389C22.6016 17.8674 19.0449 15.5002 18.5098 15.1721C17.9668 14.8401 17.3418 14.9905 16.7832 15.2854C16.3437 15.5178 15.1543 16.1994 14.8144 16.3948C14.5586 16.2326 13.5879 15.5862 11.5 13.4983C9.41015 11.4104 8.76562 10.4397 8.60351 10.1838C8.79882 9.84397 9.47851 8.66038 9.71288 8.21311C10.0059 7.65647 10.1699 7.02561 9.82031 6.47874C9.67382 6.24632 9.00781 5.23265 8.33593 4.21507C7.6621 3.19749 7.02343 2.23265 6.85742 2.00218V2.00022C6.64062 1.7014 6.30273 1.52561 5.91992 1.49436ZM5.82812 2.51585C5.96484 2.53343 6.04687 2.58811 6.04687 2.58811C6.12695 2.69944 6.82812 3.75022 7.49999 4.76585C8.17187 5.78343 8.85742 6.8264 8.97656 7.01585C8.99609 7.04515 9.02343 7.37718 8.82812 7.74632V7.74827C8.60742 8.16819 7.57812 9.96702 7.57812 9.96702L7.43554 10.219L7.58203 10.469C7.58203 10.469 8.3496 11.7639 10.791 14.2053C13.2344 16.6467 14.5293 17.4162 14.5293 17.4162L14.7793 17.5627L15.0312 17.4201C15.0312 17.4201 16.8262 16.3928 17.25 16.1701C17.6191 15.9768 17.9512 16.0022 17.9902 16.0256C18.3359 16.2385 22.1777 18.7912 22.4141 18.9573C22.4219 18.9631 22.6309 19.2795 22.3262 19.7131H22.3242C22.1406 19.9768 21.5391 20.7405 20.9121 21.3928C20.5977 21.719 20.2754 22.0237 20.0019 22.2287C19.7285 22.4338 19.4844 22.4983 19.5234 22.5002C19.0977 22.4866 18.1582 22.4768 16.4336 21.6662C14.709 20.8576 12.248 19.2385 9.0039 15.9924C5.76171 12.7502 4.14257 10.2893 3.33202 8.56272C2.52343 6.83811 2.51367 5.89866 2.49999 5.47483C2.50195 5.5139 2.5664 5.2678 2.77148 4.99436C2.97656 4.72093 3.27929 4.39671 3.60546 4.08226C4.25976 3.4553 5.02148 2.85374 5.28515 2.67015V2.6721C5.50195 2.51976 5.6914 2.50022 5.82812 2.51585Z" fill="url(#paint0_linear_0_32)"/>
<defs>
<linearGradient id="paint0_linear_0_32" x1="12.5038" y1="1.48926" x2="12.5038" y2="23.5008" gradientUnits="userSpaceOnUse">
<stop stop-color="#4ABCEC"/>
<stop offset="1" stop-color="#4A8BEC"/>
</linearGradient>
</defs>
</svg>
