<svg width="32" height="22" viewBox="0 0 32 22" fill="none" xmlns="http://www.w3.org/2000/svg">
<path d="M10.55 0.939941C4.90795 0.939941 0.320007 5.52789 0.320007 11.1699C0.320007 16.812 4.90795 21.3999 10.55 21.3999C16.1921 21.3999 20.78 16.812 20.78 11.1699C20.78 5.52789 16.1921 0.939941 10.55 0.939941ZM16.16 6.87994C16.3288 6.87994 16.4976 6.94427 16.6266 7.0733C16.8847 7.33136 16.8847 7.74852 16.6266 8.00658L8.70665 15.9266C8.57795 16.0553 8.40897 16.1199 8.24001 16.1199C8.07105 16.1199 7.90207 16.0553 7.77337 15.9266L4.47337 12.6266C4.21531 12.3685 4.21531 11.9514 4.47337 11.6933C4.73143 11.4352 5.14859 11.4352 5.40665 11.6933L8.24001 14.5267L15.6934 7.0733C15.8224 6.94427 15.9912 6.87994 16.16 6.87994ZM24.08 10.8399C23.905 10.8399 23.7371 10.9095 23.6133 11.0332C23.4895 11.157 23.42 11.3249 23.42 11.4999C23.42 11.675 23.4895 11.8429 23.6133 11.9666C23.7371 12.0904 23.905 12.1599 24.08 12.1599H32V10.8399H24.08Z" fill="url(#paint0_linear_0_122)"/>
<defs>
<linearGradient id="paint0_linear_0_122" x1="36.0616" y1="0.939942" x2="13.9158" y2="31.3198" gradientUnits="userSpaceOnUse">
<stop offset="0.25" stop-color="#3B768F"/>
<stop offset="0.536458" stop-color="#3EC6FF"/>
<stop offset="0.817708" stop-color="#3B768F"/>
</linearGradient>
</defs>
</svg>
